<svg xmlns="http://www.w3.org/2000/svg" width="1080" height="282">
<rect width="100%" height="100%" fill="#ffffff"/>
<text x="20" y="30" font-family="ui-sans-serif, system-ui" font-size="18" fill="#111827">Median tok/s (tokens = words)</text>
<text x="20" y="50" font-family="ui-sans-serif, system-ui" font-size="12" fill="#6b7280">Unit: words/sec</text>
<text x="20" y="73" font-family="ui-monospace, SFMono-Regular, Menlo, monospace" font-size="12" fill="#111827">vits-piper-en-us-ryan-low</text>
<rect x="260" y="60" width="780" height="18" rx="3" fill="#2563eb"/>
<text x="1048" y="73" font-family="ui-sans-serif, system-ui" font-size="12" fill="#111827">475.000</text>
<text x="20" y="99" font-family="ui-monospace, SFMono-Regular, Menlo, monospace" font-size="12" fill="#111827">vits-piper-en-us-amy-low</text>
<rect x="260" y="86" width="495" height="18" rx="3" fill="#2563eb"/>
<text x="763" y="99" font-family="ui-sans-serif, system-ui" font-size="12" fill="#111827">301.893</text>
<text x="20" y="125" font-family="ui-monospace, SFMono-Regular, Menlo, monospace" font-size="12" fill="#111827">matcha-en-us-ljspeech</text>
<rect x="260" y="112" width="269" height="18" rx="3" fill="#2563eb"/>
<text x="537" y="125" font-family="ui-sans-serif, system-ui" font-size="12" fill="#111827">163.853</text>
<text x="20" y="151" font-family="ui-monospace, SFMono-Regular, Menlo, monospace" font-size="12" fill="#111827">android-system-tts</text>
<rect x="260" y="138" width="62" height="18" rx="3" fill="#2563eb"/>
<text x="330" y="151" font-family="ui-sans-serif, system-ui" font-size="12" fill="#111827">37.847</text>
<text x="20" y="177" font-family="ui-monospace, SFMono-Regular, Menlo, monospace" font-size="12" fill="#111827">kokoro-int8-multi-lang-v1_1</text>
<rect x="260" y="164" width="26" height="18" rx="3" fill="#2563eb"/>
<text x="294" y="177" font-family="ui-sans-serif, system-ui" font-size="12" fill="#111827">16.131</text>
<text x="20" y="203" font-family="ui-monospace, SFMono-Regular, Menlo, monospace" font-size="12" fill="#111827">kokoro-en-v0_19</text>
<rect x="260" y="190" width="19" height="18" rx="3" fill="#2563eb"/>
<text x="287" y="203" font-family="ui-sans-serif, system-ui" font-size="12" fill="#111827">12.127</text>
<text x="20" y="229" font-family="ui-monospace, SFMono-Regular, Menlo, monospace" font-size="12" fill="#111827">kitten-nano-en-v0_2-fp16</text>
<rect x="260" y="216" width="8" height="18" rx="3" fill="#2563eb"/>
<text x="276" y="229" font-family="ui-sans-serif, system-ui" font-size="12" fill="#111827">5.131</text>
</svg>
