<svg xmlns="http://www.w3.org/2000/svg" width="1080" height="1062">
<rect width="100%" height="100%" fill="#ffffff"/>
<text x="20" y="30" font-family="ui-sans-serif, system-ui" font-size="18" fill="#111827">Median tok/s (tokens = words)</text>
<text x="20" y="50" font-family="ui-sans-serif, system-ui" font-size="12" fill="#6b7280">Unit: words/sec</text>
<text x="20" y="73" font-family="ui-monospace, SFMono-Regular, Menlo, monospace" font-size="12" fill="#111827">vits-coqui-uk-mai</text>
<rect x="260" y="60" width="780" height="18" rx="3" fill="#2563eb"/>
<text x="1048" y="73" font-family="ui-sans-serif, system-ui" font-size="12" fill="#111827">164.662</text>
<text x="20" y="99" font-family="ui-monospace, SFMono-Regular, Menlo, monospace" font-size="12" fill="#111827">android-system-tts</text>
<rect x="260" y="86" width="157" height="18" rx="3" fill="#2563eb"/>
<text x="425" y="99" font-family="ui-sans-serif, system-ui" font-size="12" fill="#111827">33.256</text>
<text x="20" y="125" font-family="ui-monospace, SFMono-Regular, Menlo, monospace" font-size="12" fill="#111827">vits-coqui-bg-cv</text>
<rect x="260" y="112" width="151" height="18" rx="3" fill="#2563eb"/>
<text x="419" y="125" font-family="ui-sans-serif, system-ui" font-size="12" fill="#111827">31.960</text>
<text x="20" y="151" font-family="ui-monospace, SFMono-Regular, Menlo, monospace" font-size="12" fill="#111827">vits-coqui-cs-cv</text>
<rect x="260" y="138" width="149" height="18" rx="3" fill="#2563eb"/>
<text x="417" y="151" font-family="ui-sans-serif, system-ui" font-size="12" fill="#111827">31.516</text>
<text x="20" y="177" font-family="ui-monospace, SFMono-Regular, Menlo, monospace" font-size="12" fill="#111827">vits-coqui-sv-cv</text>
<rect x="260" y="164" width="147" height="18" rx="3" fill="#2563eb"/>
<text x="415" y="177" font-family="ui-sans-serif, system-ui" font-size="12" fill="#111827">31.105</text>
<text x="20" y="203" font-family="ui-monospace, SFMono-Regular, Menlo, monospace" font-size="12" fill="#111827">vits-coqui-pt-cv</text>
<rect x="260" y="190" width="142" height="18" rx="3" fill="#2563eb"/>
<text x="410" y="203" font-family="ui-sans-serif, system-ui" font-size="12" fill="#111827">30.037</text>
<text x="20" y="229" font-family="ui-monospace, SFMono-Regular, Menlo, monospace" font-size="12" fill="#111827">vits-coqui-ro-cv</text>
<rect x="260" y="216" width="140" height="18" rx="3" fill="#2563eb"/>
<text x="408" y="229" font-family="ui-sans-serif, system-ui" font-size="12" fill="#111827">29.708</text>
<text x="20" y="255" font-family="ui-monospace, SFMono-Regular, Menlo, monospace" font-size="12" fill="#111827">vits-coqui-mt-cv</text>
<rect x="260" y="242" width="139" height="18" rx="3" fill="#2563eb"/>
<text x="407" y="255" font-family="ui-sans-serif, system-ui" font-size="12" fill="#111827">29.439</text>
<text x="20" y="281" font-family="ui-monospace, SFMono-Regular, Menlo, monospace" font-size="12" fill="#111827">vits-coqui-et-cv</text>
<rect x="260" y="268" width="135" height="18" rx="3" fill="#2563eb"/>
<text x="403" y="281" font-family="ui-sans-serif, system-ui" font-size="12" fill="#111827">28.592</text>
<text x="20" y="307" font-family="ui-monospace, SFMono-Regular, Menlo, monospace" font-size="12" fill="#111827">vits-coqui-hr-cv</text>
<rect x="260" y="294" width="134" height="18" rx="3" fill="#2563eb"/>
<text x="402" y="307" font-family="ui-sans-serif, system-ui" font-size="12" fill="#111827">28.364</text>
<text x="20" y="333" font-family="ui-monospace, SFMono-Regular, Menlo, monospace" font-size="12" fill="#111827">vits-coqui-sl-cv</text>
<rect x="260" y="320" width="133" height="18" rx="3" fill="#2563eb"/>
<text x="401" y="333" font-family="ui-sans-serif, system-ui" font-size="12" fill="#111827">28.086</text>
<text x="20" y="359" font-family="ui-monospace, SFMono-Regular, Menlo, monospace" font-size="12" fill="#111827">vits-coqui-pl-mai-female</text>
<rect x="260" y="346" width="131" height="18" rx="3" fill="#2563eb"/>
<text x="399" y="359" font-family="ui-sans-serif, system-ui" font-size="12" fill="#111827">27.792</text>
<text x="20" y="385" font-family="ui-monospace, SFMono-Regular, Menlo, monospace" font-size="12" fill="#111827">vits-coqui-da-cv</text>
<rect x="260" y="372" width="131" height="18" rx="3" fill="#2563eb"/>
<text x="399" y="385" font-family="ui-sans-serif, system-ui" font-size="12" fill="#111827">27.703</text>
<text x="20" y="411" font-family="ui-monospace, SFMono-Regular, Menlo, monospace" font-size="12" fill="#111827">vits-coqui-fr-css10</text>
<rect x="260" y="398" width="123" height="18" rx="3" fill="#2563eb"/>
<text x="391" y="411" font-family="ui-sans-serif, system-ui" font-size="12" fill="#111827">26.097</text>
<text x="20" y="437" font-family="ui-monospace, SFMono-Regular, Menlo, monospace" font-size="12" fill="#111827">vits-coqui-lv-cv</text>
<rect x="260" y="424" width="121" height="18" rx="3" fill="#2563eb"/>
<text x="389" y="437" font-family="ui-sans-serif, system-ui" font-size="12" fill="#111827">25.752</text>
<text x="20" y="463" font-family="ui-monospace, SFMono-Regular, Menlo, monospace" font-size="12" fill="#111827">vits-coqui-sk-cv</text>
<rect x="260" y="450" width="118" height="18" rx="3" fill="#2563eb"/>
<text x="386" y="463" font-family="ui-sans-serif, system-ui" font-size="12" fill="#111827">25.032</text>
<text x="20" y="489" font-family="ui-monospace, SFMono-Regular, Menlo, monospace" font-size="12" fill="#111827">vits-coqui-hu-css10</text>
<rect x="260" y="476" width="117" height="18" rx="3" fill="#2563eb"/>
<text x="385" y="489" font-family="ui-sans-serif, system-ui" font-size="12" fill="#111827">24.754</text>
<text x="20" y="515" font-family="ui-monospace, SFMono-Regular, Menlo, monospace" font-size="12" fill="#111827">vits-coqui-ga-cv</text>
<rect x="260" y="502" width="116" height="18" rx="3" fill="#2563eb"/>
<text x="384" y="515" font-family="ui-sans-serif, system-ui" font-size="12" fill="#111827">24.691</text>
<text x="20" y="541" font-family="ui-monospace, SFMono-Regular, Menlo, monospace" font-size="12" fill="#111827">vits-coqui-nl-css10</text>
<rect x="260" y="528" width="114" height="18" rx="3" fill="#2563eb"/>
<text x="382" y="541" font-family="ui-sans-serif, system-ui" font-size="12" fill="#111827">24.228</text>
<text x="20" y="567" font-family="ui-monospace, SFMono-Regular, Menlo, monospace" font-size="12" fill="#111827">vits-coqui-de-css10</text>
<rect x="260" y="554" width="111" height="18" rx="3" fill="#2563eb"/>
<text x="379" y="567" font-family="ui-sans-serif, system-ui" font-size="12" fill="#111827">23.635</text>
<text x="20" y="593" font-family="ui-monospace, SFMono-Regular, Menlo, monospace" font-size="12" fill="#111827">vits-coqui-lt-cv</text>
<rect x="260" y="580" width="110" height="18" rx="3" fill="#2563eb"/>
<text x="378" y="593" font-family="ui-sans-serif, system-ui" font-size="12" fill="#111827">23.390</text>
<text x="20" y="619" font-family="ui-monospace, SFMono-Regular, Menlo, monospace" font-size="12" fill="#111827">vits-coqui-es-css10</text>
<rect x="260" y="606" width="103" height="18" rx="3" fill="#2563eb"/>
<text x="371" y="619" font-family="ui-sans-serif, system-ui" font-size="12" fill="#111827">21.779</text>
<text x="20" y="645" font-family="ui-monospace, SFMono-Regular, Menlo, monospace" font-size="12" fill="#111827">matcha-icefall-en-us-ljspeech-vocos</text>
<rect x="260" y="632" width="96" height="18" rx="3" fill="#2563eb"/>
<text x="364" y="645" font-family="ui-sans-serif, system-ui" font-size="12" fill="#111827">20.280</text>
<text x="20" y="671" font-family="ui-monospace, SFMono-Regular, Menlo, monospace" font-size="12" fill="#111827">vits-coqui-bn-custom-female</text>
<rect x="260" y="658" width="90" height="18" rx="3" fill="#2563eb"/>
<text x="358" y="671" font-family="ui-sans-serif, system-ui" font-size="12" fill="#111827">19.034</text>
<text x="20" y="697" font-family="ui-monospace, SFMono-Regular, Menlo, monospace" font-size="12" fill="#111827">vits-coqui-fi-css10</text>
<rect x="260" y="684" width="85" height="18" rx="3" fill="#2563eb"/>
<text x="353" y="697" font-family="ui-sans-serif, system-ui" font-size="12" fill="#111827">18.123</text>
<text x="20" y="723" font-family="ui-monospace, SFMono-Regular, Menlo, monospace" font-size="12" fill="#111827">matcha-icefall-en-us-ljspeech-hifigan</text>
<rect x="260" y="710" width="66" height="18" rx="3" fill="#2563eb"/>
<text x="334" y="723" font-family="ui-sans-serif, system-ui" font-size="12" fill="#111827">14.076</text>
<text x="20" y="749" font-family="ui-monospace, SFMono-Regular, Menlo, monospace" font-size="12" fill="#111827">vits-coqui-en-vctk</text>
<rect x="260" y="736" width="19" height="18" rx="3" fill="#2563eb"/>
<text x="287" y="749" font-family="ui-sans-serif, system-ui" font-size="12" fill="#111827">4.178</text>
<text x="20" y="775" font-family="ui-monospace, SFMono-Regular, Menlo, monospace" font-size="12" fill="#111827">kitten-nano-en-v0-1-fp16</text>
<rect x="260" y="762" width="18" height="18" rx="3" fill="#2563eb"/>
<text x="286" y="775" font-family="ui-sans-serif, system-ui" font-size="12" fill="#111827">3.856</text>
<text x="20" y="801" font-family="ui-monospace, SFMono-Regular, Menlo, monospace" font-size="12" fill="#111827">kitten-nano-en-v0-2-fp16</text>
<rect x="260" y="788" width="16" height="18" rx="3" fill="#2563eb"/>
<text x="284" y="801" font-family="ui-sans-serif, system-ui" font-size="12" fill="#111827">3.415</text>
<text x="20" y="827" font-family="ui-monospace, SFMono-Regular, Menlo, monospace" font-size="12" fill="#111827">vits-coqui-en-ljspeech</text>
<rect x="260" y="814" width="14" height="18" rx="3" fill="#2563eb"/>
<text x="282" y="827" font-family="ui-sans-serif, system-ui" font-size="12" fill="#111827">2.968</text>
<text x="20" y="853" font-family="ui-monospace, SFMono-Regular, Menlo, monospace" font-size="12" fill="#111827">vits-coqui-en-ljspeech-neon</text>
<rect x="260" y="840" width="14" height="18" rx="3" fill="#2563eb"/>
<text x="282" y="853" font-family="ui-sans-serif, system-ui" font-size="12" fill="#111827">2.960</text>
<text x="20" y="879" font-family="ui-monospace, SFMono-Regular, Menlo, monospace" font-size="12" fill="#111827">kokoro-multi-lang-v1-0</text>
<rect x="260" y="866" width="12" height="18" rx="3" fill="#2563eb"/>
<text x="280" y="879" font-family="ui-sans-serif, system-ui" font-size="12" fill="#111827">2.564</text>
<text x="20" y="905" font-family="ui-monospace, SFMono-Regular, Menlo, monospace" font-size="12" fill="#111827">kokoro-multi-lang-v1-1</text>
<rect x="260" y="892" width="11" height="18" rx="3" fill="#2563eb"/>
<text x="279" y="905" font-family="ui-sans-serif, system-ui" font-size="12" fill="#111827">2.482</text>
<text x="20" y="931" font-family="ui-monospace, SFMono-Regular, Menlo, monospace" font-size="12" fill="#111827">kokoro-en-v0-19</text>
<rect x="260" y="918" width="10" height="18" rx="3" fill="#2563eb"/>
<text x="278" y="931" font-family="ui-sans-serif, system-ui" font-size="12" fill="#111827">2.199</text>
<text x="20" y="957" font-family="ui-monospace, SFMono-Regular, Menlo, monospace" font-size="12" fill="#111827">kokoro-int8-multi-lang-v1-1</text>
<rect x="260" y="944" width="5" height="18" rx="3" fill="#2563eb"/>
<text x="273" y="957" font-family="ui-sans-serif, system-ui" font-size="12" fill="#111827">1.176</text>
<text x="20" y="983" font-family="ui-monospace, SFMono-Regular, Menlo, monospace" font-size="12" fill="#111827">kitten-mini-en-v0-1-fp16</text>
<rect x="260" y="970" width="4" height="18" rx="3" fill="#2563eb"/>
<text x="272" y="983" font-family="ui-sans-serif, system-ui" font-size="12" fill="#111827">1.046</text>
<text x="20" y="1009" font-family="ui-monospace, SFMono-Regular, Menlo, monospace" font-size="12" fill="#111827">kokoro-int8-multi-lang-v1-0</text>
<rect x="260" y="996" width="4" height="18" rx="3" fill="#2563eb"/>
<text x="272" y="1009" font-family="ui-sans-serif, system-ui" font-size="12" fill="#111827">0.990</text>
</svg>
