<svg xmlns="http://www.w3.org/2000/svg" width="920" height="1200" viewBox="-120 0 1040 1200">
<defs>
  <linearGradient id="g-sys" x1="0" y1="0" x2="1" y2="0">
    <stop offset="0%" stop-color="#818cf8"/><stop offset="100%" stop-color="#4f46e5"/>
  </linearGradient>
  <linearGradient id="g-vits-lang" x1="0" y1="0" x2="1" y2="0">
    <stop offset="0%" stop-color="#34d399"/><stop offset="100%" stop-color="#059669"/>
  </linearGradient>
  <linearGradient id="g-vits-en" x1="0" y1="0" x2="1" y2="0">
    <stop offset="0%" stop-color="#60a5fa"/><stop offset="100%" stop-color="#2563eb"/>
  </linearGradient>
  <linearGradient id="g-matcha" x1="0" y1="0" x2="1" y2="0">
    <stop offset="0%" stop-color="#a78bfa"/><stop offset="100%" stop-color="#7c3aed"/>
  </linearGradient>
  <linearGradient id="g-kokoro" x1="0" y1="0" x2="1" y2="0">
    <stop offset="0%" stop-color="#fbbf24"/><stop offset="100%" stop-color="#d97706"/>
  </linearGradient>
  <linearGradient id="g-kitten" x1="0" y1="0" x2="1" y2="0">
    <stop offset="0%" stop-color="#f472b6"/><stop offset="100%" stop-color="#db2777"/>
  </linearGradient>
  <linearGradient id="accent" x1="0" y1="0" x2="1" y2="0">
    <stop offset="0%" stop-color="#f59e0b"/><stop offset="100%" stop-color="#ec4899"/>
  </linearGradient>
</defs>
<style>
  text { font-family: -apple-system, BlinkMacSystemFont, 'SF Pro Display', 'Segoe UI', Helvetica, sans-serif; }
</style>

<!-- Card -->
<rect x="-120" width="1040" height="1200" rx="12" fill="white"/>
<rect x="-119" y="1" width="1038" height="1198" rx="11" fill="white" stroke="#e2e8f0" stroke-width="1"/>
<rect x="-119" y="1" width="1038" height="5" rx="11" fill="url(#accent)" style="clip-path: inset(0 0 0 0 round 11px 11px 0 0)"/>

<!-- Title -->
<text x="270" y="34" font-size="18" font-weight="700" fill="#111827">Android TTS — Median Throughput (tok/s)</text>
<text x="270" y="52" font-size="11" fill="#9ca3af">Samsung Galaxy · 12 English prompts per model · sorted by speed</text>

<!-- Grid (0, 40, 80, 120, 160) scale: 560/164.66 = 3.40 -->
<line x1="270" y1="66" x2="270" y2="1058" stroke="#e5e7eb" stroke-width="1"/>
<line x1="406" y1="66" x2="406" y2="1058" stroke="#f1f5f9" stroke-width="1"/>
<line x1="542" y1="66" x2="542" y2="1058" stroke="#f1f5f9" stroke-width="1"/>
<line x1="678" y1="66" x2="678" y2="1058" stroke="#f1f5f9" stroke-width="1"/>
<line x1="814" y1="66" x2="814" y2="1058" stroke="#f1f5f9" stroke-width="1"/>

<!-- X-axis -->
<line x1="270" y1="1058" x2="840" y2="1058" stroke="#e5e7eb" stroke-width="1"/>
<text x="270" y="1074" text-anchor="middle" font-size="9" fill="#9ca3af">0</text>
<text x="406" y="1074" text-anchor="middle" font-size="9" fill="#9ca3af">40</text>
<text x="542" y="1074" text-anchor="middle" font-size="9" fill="#9ca3af">80</text>
<text x="678" y="1074" text-anchor="middle" font-size="9" fill="#9ca3af">120</text>
<text x="814" y="1074" text-anchor="middle" font-size="9" fill="#9ca3af">160</text>
<text x="855" y="1074" font-size="9" fill="#b0b8c4">tok/s &#x2192;</text>

<!-- RTF = 1.0 reference line at tok/s ≈ 18 → x ≈ 270 + 18*3.40 = 331 -->
<line x1="331" y1="66" x2="331" y2="1058" stroke="#fca5a5" stroke-width="1" stroke-dasharray="4 3"/>
<text x="333" y="1074" font-size="8" fill="#f87171">RTF=1</text>

<!-- Row 0: VITS Coqui uk-mai — 164.7 tok/s (outlier) -->
<text x="260" y="87" text-anchor="end" font-size="11" fill="#374151">VITS Coqui (uk-mai)</text>
<rect x="270" y="72" width="560" height="22" rx="5" fill="url(#g-vits-lang)"/>
<text x="836" y="87" font-size="10" font-weight="600" fill="#1f2937">164.7</text>

<!-- Row 1: Android System TTS — 33.3 tok/s -->
<rect x="-120" y="98" width="1040" height="30" fill="#f8fafc"/>
<text x="260" y="117" text-anchor="end" font-size="11" fill="#374151">Android System TTS</text>
<rect x="270" y="102" width="113" height="22" rx="5" fill="url(#g-sys)"/>
<text x="389" y="117" font-size="10" font-weight="600" fill="#1f2937">33.3</text>

<!-- Row 2: VITS Coqui bg-cv — 32.0 -->
<text x="260" y="147" text-anchor="end" font-size="11" fill="#374151">VITS Coqui (bg-cv)</text>
<rect x="270" y="132" width="109" height="22" rx="5" fill="url(#g-vits-lang)"/>
<text x="385" y="147" font-size="10" font-weight="600" fill="#1f2937">32.0</text>

<!-- Row 3: VITS Coqui cs-cv — 31.5 -->
<rect x="-120" y="158" width="1040" height="30" fill="#f8fafc"/>
<text x="260" y="177" text-anchor="end" font-size="11" fill="#374151">VITS Coqui (cs-cv)</text>
<rect x="270" y="162" width="107" height="22" rx="5" fill="url(#g-vits-lang)"/>
<text x="383" y="177" font-size="10" font-weight="600" fill="#1f2937">31.5</text>

<!-- Row 4: VITS Coqui sv-cv — 31.1 -->
<text x="260" y="207" text-anchor="end" font-size="11" fill="#374151">VITS Coqui (sv-cv)</text>
<rect x="270" y="192" width="106" height="22" rx="5" fill="url(#g-vits-lang)"/>
<text x="382" y="207" font-size="10" font-weight="600" fill="#1f2937">31.1</text>

<!-- Row 5: VITS Coqui pt-cv — 30.0 -->
<rect x="-120" y="218" width="1040" height="30" fill="#f8fafc"/>
<text x="260" y="237" text-anchor="end" font-size="11" fill="#374151">VITS Coqui (pt-cv)</text>
<rect x="270" y="222" width="102" height="22" rx="5" fill="url(#g-vits-lang)"/>
<text x="378" y="237" font-size="10" font-weight="600" fill="#1f2937">30.0</text>

<!-- Row 6: VITS Coqui ro-cv — 29.7 -->
<text x="260" y="267" text-anchor="end" font-size="11" fill="#374151">VITS Coqui (ro-cv)</text>
<rect x="270" y="252" width="101" height="22" rx="5" fill="url(#g-vits-lang)"/>
<text x="377" y="267" font-size="10" font-weight="600" fill="#1f2937">29.7</text>

<!-- Row 7: VITS Coqui mt-cv — 29.4 -->
<rect x="-120" y="278" width="1040" height="30" fill="#f8fafc"/>
<text x="260" y="297" text-anchor="end" font-size="11" fill="#374151">VITS Coqui (mt-cv)</text>
<rect x="270" y="282" width="100" height="22" rx="5" fill="url(#g-vits-lang)"/>
<text x="376" y="297" font-size="10" font-weight="600" fill="#1f2937">29.4</text>

<!-- Row 8: VITS Coqui et-cv — 28.6 -->
<text x="260" y="327" text-anchor="end" font-size="11" fill="#374151">VITS Coqui (et-cv)</text>
<rect x="270" y="312" width="97" height="22" rx="5" fill="url(#g-vits-lang)"/>
<text x="373" y="327" font-size="10" font-weight="600" fill="#1f2937">28.6</text>

<!-- Row 9: VITS Coqui hr-cv — 28.4 -->
<rect x="-120" y="338" width="1040" height="30" fill="#f8fafc"/>
<text x="260" y="357" text-anchor="end" font-size="11" fill="#374151">VITS Coqui (hr-cv)</text>
<rect x="270" y="342" width="97" height="22" rx="5" fill="url(#g-vits-lang)"/>
<text x="373" y="357" font-size="10" font-weight="600" fill="#1f2937">28.4</text>

<!-- Row 10: VITS Coqui sl-cv — 28.1 -->
<text x="260" y="387" text-anchor="end" font-size="11" fill="#374151">VITS Coqui (sl-cv)</text>
<rect x="270" y="372" width="96" height="22" rx="5" fill="url(#g-vits-lang)"/>
<text x="372" y="387" font-size="10" font-weight="600" fill="#1f2937">28.1</text>

<!-- Row 11: VITS Coqui pl-mai — 27.8 -->
<rect x="-120" y="398" width="1040" height="30" fill="#f8fafc"/>
<text x="260" y="417" text-anchor="end" font-size="11" fill="#374151">VITS Coqui (pl-mai)</text>
<rect x="270" y="402" width="95" height="22" rx="5" fill="url(#g-vits-lang)"/>
<text x="371" y="417" font-size="10" font-weight="600" fill="#1f2937">27.8</text>

<!-- Row 12: VITS Coqui da-cv — 27.7 -->
<text x="260" y="447" text-anchor="end" font-size="11" fill="#374151">VITS Coqui (da-cv)</text>
<rect x="270" y="432" width="94" height="22" rx="5" fill="url(#g-vits-lang)"/>
<text x="370" y="447" font-size="10" font-weight="600" fill="#1f2937">27.7</text>

<!-- Row 13: VITS Coqui fr-css10 — 26.1 -->
<rect x="-120" y="458" width="1040" height="30" fill="#f8fafc"/>
<text x="260" y="477" text-anchor="end" font-size="11" fill="#374151">VITS Coqui (fr-css10)</text>
<rect x="270" y="462" width="89" height="22" rx="5" fill="url(#g-vits-lang)"/>
<text x="365" y="477" font-size="10" font-weight="600" fill="#1f2937">26.1</text>

<!-- Row 14: VITS Coqui lv-cv — 25.8 -->
<text x="260" y="507" text-anchor="end" font-size="11" fill="#374151">VITS Coqui (lv-cv)</text>
<rect x="270" y="492" width="88" height="22" rx="5" fill="url(#g-vits-lang)"/>
<text x="364" y="507" font-size="10" font-weight="600" fill="#1f2937">25.8</text>

<!-- Row 15: VITS Coqui sk-cv — 25.0 -->
<rect x="-120" y="518" width="1040" height="30" fill="#f8fafc"/>
<text x="260" y="537" text-anchor="end" font-size="11" fill="#374151">VITS Coqui (sk-cv)</text>
<rect x="270" y="522" width="85" height="22" rx="5" fill="url(#g-vits-lang)"/>
<text x="361" y="537" font-size="10" font-weight="600" fill="#1f2937">25.0</text>

<!-- Row 16: VITS Coqui hu-css10 — 24.8 -->
<text x="260" y="567" text-anchor="end" font-size="11" fill="#374151">VITS Coqui (hu-css10)</text>
<rect x="270" y="552" width="84" height="22" rx="5" fill="url(#g-vits-lang)"/>
<text x="360" y="567" font-size="10" font-weight="600" fill="#1f2937">24.8</text>

<!-- Row 17: VITS Coqui ga-cv — 24.7 -->
<rect x="-120" y="578" width="1040" height="30" fill="#f8fafc"/>
<text x="260" y="597" text-anchor="end" font-size="11" fill="#374151">VITS Coqui (ga-cv)</text>
<rect x="270" y="582" width="84" height="22" rx="5" fill="url(#g-vits-lang)"/>
<text x="360" y="597" font-size="10" font-weight="600" fill="#1f2937">24.7</text>

<!-- Row 18: VITS Coqui nl-css10 — 24.2 -->
<text x="260" y="627" text-anchor="end" font-size="11" fill="#374151">VITS Coqui (nl-css10)</text>
<rect x="270" y="612" width="82" height="22" rx="5" fill="url(#g-vits-lang)"/>
<text x="358" y="627" font-size="10" font-weight="600" fill="#1f2937">24.2</text>

<!-- Row 19: VITS Coqui de-css10 — 23.6 -->
<rect x="-120" y="638" width="1040" height="30" fill="#f8fafc"/>
<text x="260" y="657" text-anchor="end" font-size="11" fill="#374151">VITS Coqui (de-css10)</text>
<rect x="270" y="642" width="80" height="22" rx="5" fill="url(#g-vits-lang)"/>
<text x="356" y="657" font-size="10" font-weight="600" fill="#1f2937">23.6</text>

<!-- Row 20: VITS Coqui lt-cv — 23.4 -->
<text x="260" y="687" text-anchor="end" font-size="11" fill="#374151">VITS Coqui (lt-cv)</text>
<rect x="270" y="672" width="80" height="22" rx="5" fill="url(#g-vits-lang)"/>
<text x="356" y="687" font-size="10" font-weight="600" fill="#1f2937">23.4</text>

<!-- Row 21: VITS Coqui es-css10 — 21.8 -->
<rect x="-120" y="698" width="1040" height="30" fill="#f8fafc"/>
<text x="260" y="717" text-anchor="end" font-size="11" fill="#374151">VITS Coqui (es-css10)</text>
<rect x="270" y="702" width="74" height="22" rx="5" fill="url(#g-vits-lang)"/>
<text x="350" y="717" font-size="10" font-weight="600" fill="#1f2937">21.8</text>

<!-- Row 22: Matcha + Vocos — 20.3 -->
<text x="260" y="747" text-anchor="end" font-size="11" fill="#374151">Matcha LJSpeech + Vocos</text>
<rect x="270" y="732" width="69" height="22" rx="5" fill="url(#g-matcha)"/>
<text x="345" y="747" font-size="10" font-weight="600" fill="#1f2937">20.3</text>

<!-- Row 23: VITS Coqui bn-custom — 19.0 -->
<rect x="-120" y="758" width="1040" height="30" fill="#f8fafc"/>
<text x="260" y="777" text-anchor="end" font-size="11" fill="#374151">VITS Coqui (bn-custom)</text>
<rect x="270" y="762" width="65" height="22" rx="5" fill="url(#g-vits-lang)"/>
<text x="341" y="777" font-size="10" font-weight="600" fill="#1f2937">19.0</text>

<!-- Row 24: VITS Coqui fi-css10 — 18.1 -->
<text x="260" y="807" text-anchor="end" font-size="11" fill="#374151">VITS Coqui (fi-css10)</text>
<rect x="270" y="792" width="62" height="22" rx="5" fill="url(#g-vits-lang)"/>
<text x="338" y="807" font-size="10" font-weight="600" fill="#1f2937">18.1</text>

<!-- Row 25: Matcha + HiFiGAN — 14.1 -->
<rect x="-120" y="818" width="1040" height="30" fill="#f8fafc"/>
<text x="260" y="837" text-anchor="end" font-size="11" fill="#374151">Matcha LJSpeech + HiFiGAN</text>
<rect x="270" y="822" width="48" height="22" rx="5" fill="url(#g-matcha)"/>
<text x="324" y="837" font-size="10" font-weight="600" fill="#1f2937">14.1</text>

<!-- Row 26: VITS Coqui en-vctk — 4.2 -->
<text x="260" y="867" text-anchor="end" font-size="11" fill="#374151">VITS Coqui (en-vctk)</text>
<rect x="270" y="852" width="14" height="22" rx="5" fill="url(#g-vits-en)"/>
<text x="290" y="867" font-size="10" font-weight="600" fill="#1f2937">4.2</text>

<!-- Row 27: Kitten Nano v0.1 — 3.9 -->
<rect x="-120" y="878" width="1040" height="30" fill="#f8fafc"/>
<text x="260" y="897" text-anchor="end" font-size="11" fill="#374151">Kitten Nano v0.1</text>
<rect x="270" y="882" width="13" height="22" rx="5" fill="url(#g-kitten)"/>
<text x="289" y="897" font-size="10" font-weight="600" fill="#1f2937">3.9</text>

<!-- Row 28: Kitten Nano v0.2 — 3.4 -->
<text x="260" y="927" text-anchor="end" font-size="11" fill="#374151">Kitten Nano v0.2</text>
<rect x="270" y="912" width="12" height="22" rx="5" fill="url(#g-kitten)"/>
<text x="288" y="927" font-size="10" font-weight="600" fill="#1f2937">3.4</text>

<!-- Row 29: VITS en-ljspeech — 3.0 -->
<rect x="-120" y="938" width="1040" height="30" fill="#f8fafc"/>
<text x="260" y="957" text-anchor="end" font-size="11" fill="#374151">VITS Coqui (en-ljspeech)</text>
<rect x="270" y="942" width="10" height="22" rx="5" fill="url(#g-vits-en)"/>
<text x="286" y="957" font-size="10" font-weight="600" fill="#1f2937">3.0</text>

<!-- Row 30: Kokoro Multi-lang v1.0 — 2.6 -->
<text x="260" y="987" text-anchor="end" font-size="11" fill="#374151">Kokoro Multi-lang v1.0</text>
<rect x="270" y="972" width="9" height="22" rx="5" fill="url(#g-kokoro)"/>
<text x="285" y="987" font-size="10" font-weight="600" fill="#1f2937">2.6</text>

<!-- Row 31: Kokoro en-v0.19 — 2.2 -->
<rect x="-120" y="998" width="1040" height="30" fill="#f8fafc"/>
<text x="260" y="1017" text-anchor="end" font-size="11" fill="#374151">Kokoro en-v0.19</text>
<rect x="270" y="1002" width="8" height="22" rx="4" fill="url(#g-kokoro)"/>
<text x="284" y="1017" font-size="10" font-weight="600" fill="#1f2937">2.2</text>

<!-- Row 32: Kokoro INT8 v1.1 — 1.2 -->
<text x="260" y="1047" text-anchor="end" font-size="11" fill="#374151">Kokoro INT8 Multi-lang v1.1</text>
<rect x="270" y="1032" width="4" height="22" rx="2" fill="url(#g-kokoro)"/>
<text x="280" y="1047" font-size="10" font-weight="600" fill="#1f2937">1.2</text>

<!-- Legend -->
<circle cx="270" cy="1100" r="5" fill="#4f46e5"/>
<text x="280" y="1104" font-size="10" fill="#6b7280">Android System TTS</text>
<circle cx="420" cy="1100" r="5" fill="#059669"/>
<text x="430" y="1104" font-size="10" fill="#6b7280">VITS Coqui (Lang)</text>
<circle cx="560" cy="1100" r="5" fill="#2563eb"/>
<text x="570" y="1104" font-size="10" fill="#6b7280">VITS Coqui (EN)</text>
<circle cx="690" cy="1100" r="5" fill="#7c3aed"/>
<text x="700" y="1104" font-size="10" fill="#6b7280">Matcha</text>

<circle cx="270" cy="1120" r="5" fill="#d97706"/>
<text x="280" y="1124" font-size="10" fill="#6b7280">Kokoro</text>
<circle cx="350" cy="1120" r="5" fill="#db2777"/>
<text x="360" y="1124" font-size="10" fill="#6b7280">Kitten</text>

<!-- RTF note -->
<text x="270" y="1150" font-size="9" fill="#f87171">Dashed line = real-time boundary (RTF 1.0). Models left of line are faster than real-time.</text>

<!-- Info -->
<text x="270" y="1176" font-size="9" fill="#c4cad2">33 models benchmarked · 12 EN prompts each · Feb 2026</text>
</svg>
